<svg width="62" height="55" viewBox="0 0 62 55" fill="none" xmlns="http://www.w3.org/2000/svg">
<g filter="url(#filter0_d_218_31)">
<ellipse cx="27.6818" cy="24.5" rx="27.6818" ry="24.5" fill="#C0DCFF" fill-opacity="0.96" shape-rendering="crispEdges"/>
</g>
<path d="M42.8033 30.1802C43.1518 29.3499 42.1558 28.6427 41.3204 29.0117C39.6504 29.7439 37.8464 30.1209 36.0229 30.1187C28.8735 30.1187 23.0788 24.4402 23.0788 17.4343C23.0781 15.0691 23.75 12.7525 25.0161 10.7547C25.5012 9.9894 24.9187 8.93023 24.0304 9.15573C17.1817 10.9034 12.125 17.0055 12.125 24.2642C12.125 32.8862 19.2573 39.875 28.0569 39.875C34.7194 39.875 40.4253 35.8689 42.8033 30.1802Z" fill="url(#paint0_linear_218_31)" fill-opacity="0.63"/>
<path d="M33.6689 9.30097C32.7635 8.69622 31.6838 9.77589 32.2868 10.6813L33.3631 12.2957C33.8001 12.9501 34.0334 13.7193 34.0334 14.5063C34.0334 15.2932 33.8001 16.0624 33.3631 16.7168L32.2868 18.3312C31.6838 19.2366 32.7652 20.3163 33.6706 19.7116L35.2832 18.6353C35.9376 18.1983 36.7069 17.965 37.4938 17.965C38.2807 17.965 39.05 18.1983 39.7044 18.6353L41.3188 19.7116C42.2242 20.3163 43.3039 19.2366 42.6991 18.3312L41.6229 16.7168C41.1858 16.0624 40.9526 15.2932 40.9526 14.5063C40.9526 13.7193 41.1858 12.9501 41.6229 12.2957L42.6991 10.6813C43.3039 9.77589 42.2242 8.69622 41.3171 9.30097L39.7044 10.3772C39.05 10.8142 38.2807 11.0475 37.4938 11.0475C36.7069 11.0475 35.9376 10.8142 35.2832 10.3772L33.6689 9.30097Z" fill="url(#paint1_linear_218_31)" fill-opacity="0.63"/>
<defs>
<filter id="filter0_d_218_31" x="0" y="0" width="61.0908" height="54.0909" filterUnits="userSpaceOnUse" color-interpolation-filters="sRGB">
<feFlood flood-opacity="0" result="BackgroundImageFix"/>
<feColorMatrix in="SourceAlpha" type="matrix" values="0 0 0 0 0 0 0 0 0 0 0 0 0 0 0 0 0 0 127 0" result="hardAlpha"/>
<feOffset dx="3.18182" dy="2.54545"/>
<feGaussianBlur stdDeviation="1.27273"/>
<feComposite in2="hardAlpha" operator="out"/>
<feColorMatrix type="matrix" values="0 0 0 0 0 0 0 0 0 0 0 0 0 0 0 0 0 0 0.25 0"/>
<feBlend mode="normal" in2="BackgroundImageFix" result="effect1_dropShadow_218_31"/>
<feBlend mode="normal" in="SourceGraphic" in2="effect1_dropShadow_218_31" result="shape"/>
</filter>
<linearGradient id="paint0_linear_218_31" x1="27.4998" y1="9.12488" x2="27.4998" y2="39.875" gradientUnits="userSpaceOnUse">
<stop stop-color="#65BAD2"/>
<stop offset="1" stop-color="#4773E0"/>
</linearGradient>
<linearGradient id="paint1_linear_218_31" x1="37.4934" y1="9.12537" x2="37.4934" y2="19.8872" gradientUnits="userSpaceOnUse">
<stop stop-color="#65BAD2"/>
<stop offset="1" stop-color="#4773E0"/>
</linearGradient>
</defs>
</svg>
